PathFileType	4	(X/Y/Z)	..\data\2015043\dynamic\2015043_C5_05.trc
DataRate	CameraRate	NumFrames	NumMarkers	Units	OrigDataRate	OrigDataStartFrame	OrigNumFrames
100.000000	100.000000	4	52	mm	100.000000	41	167
Frame#	Time	L_IAS			L_IPS			R_IPS			R_IAS			L_FTC			L_FLE			L_FME			L_FAX			L_TTC			L_FAL			L_TAM			L_FCC			L_FM1			L_FM2			L_FM5			R_FTC			R_FLE			R_FME			R_FAX			R_TTC			R_FAL			R_TAM			R_FCC			R_FM1			R_FM2			R_FM5			CV7			TV10			SXS			SJN			L_SIA			L_SRS			L_SAA			L_SAE			L_HLE			L_HME			L_UOA			L_RSP			L_UHE			L_HM2			L_HM5			R_SIA			R_SRS			R_SAA			R_SAE			R_HLE			R_HME			R_UOA			R_RSP			R_UHE			R_HM2			R_HM5			
		X1	Y1	Z1	X2	Y2	Z2	X3	Y3	Z3	X4	Y4	Z4	X5	Y5	Z5	X6	Y6	Z6	X7	Y7	Z7	X8	Y8	Z8	X9	Y9	Z9	X10	Y10	Z10	X11	Y11	Z11	X12	Y12	Z12	X13	Y13	Z13	X14	Y14	Z14	X15	Y15	Z15	X16	Y16	Z16	X17	Y17	Z17	X18	Y18	Z18	X19	Y19	Z19	X20	Y20	Z20	X21	Y21	Z21	X22	Y22	Z22	X23	Y23	Z23	X24	Y24	Z24	X25	Y25	Z25	X26	Y26	Z26	X27	Y27	Z27	X28	Y28	Z28	X29	Y29	Z29	X30	Y30	Z30	X31	Y31	Z31	X32	Y32	Z32	X33	Y33	Z33	X34	Y34	Z34	X35	Y35	Z35	X36	Y36	Z36	X37	Y37	Z37	X38	Y38	Z38	X39	Y39	Z39	X40	Y40	Z40	X41	Y41	Z41	X42	Y42	Z42	X43	Y43	Z43	X44	Y44	Z44	X45	Y45	Z45	X46	Y46	Z46	X47	Y47	Z47	X48	Y48	Z48	X49	Y49	Z49	X50	Y50	Z50	X51	Y51	Z51	X52	Y52	Z52	

42	0.41	-656.0578613281251	997.0867919921877	156.5310058593749	-830.5908813476565	1015.586059570313	235.7617645263671	-822.4712524414065	1021.263549804688	332.7172851562499	-645.1978149414064	1001.557373046875	397.9624633789063	-737.3415527343751	905.040466308594	101.8269958496093	-566.6835327148439	515.6130371093751	93.70965576171869	-528.5266723632814	504.9166564941407	211.3839721679688	-584.2912597656251	447.8155212402345	94.29309082031244	-511.0591125488282	426.7606811523439	127.5665206909179	-672.3234252929689	118.3161849975586	164.4861297607421	-609.1834106445314	117.4259567260742	234.830825805664	-709.8150634765626	70.39052581787111	224.9176788330078	-515.8339233398439	32.92462158203126	179.025634765625	-538.4264526367189	49.44122695922853	121.9542465209961	-595.7923583984376	41.50326538085938	97.10556030273433	-751.2558593750001	912.1643066406252	446.87548828125	-759.4534912109376	485.5616149902345	408.4759826660156	-756.0584716796876	484.2176208496095	285.4494628906249	-777.7829589843752	418.6864318847657	411.5211486816406	-716.8093872070314	405.1728820800782	345.5718688964843	-860.443786621094	82.62893676757814	352.5074768066406	-825.9868164062502	97.99063110351565	263.3543701171874	-909.5051269531252	36.63748168945313	304.4364624023437	-702.8364257812501	26.99331283569337	288.4312133789062	-706.9582519531251	37.77280044555665	345.1741638183593	-766.0579833984376	27.27315330505372	397.7044982910156	-759.4963378906251	1518.242553710938	274.3539428710937	-822.810241699219	1289.41015625	285.0404663085937	-589.9237060546876	1285.57177734375	270.31689453125	-645.2186889648439	1436.280151367188	273.2064514160156	-856.4087524414065	1317.069213867188	193.6214294433593	-822.5051879882815	1442.0048828125	188.755645751953	-775.6436157226565	1445.932006835938	97.89246368408196	-737.1719970703126	1446.841674804688	73.59720611572259	-783.2021484375002	1121.641967773438	-10.7775297164918	-806.0523681640627	1104.727783203125	72.73012542724601	-820.7324218750002	1090.361083984375	15.46214103698721	-659.1395263671876	878.577331542969	4.309542655944744	-710.4828491210939	870.1567382812502	-53.30811309814463	-625.8402709960939	791.1104736328127	-9.506721496582109	-719.4764404296876	798.7673950195315	-52.69202041625987	-846.6118774414065	1322.972900390625	368.9948730468749	-815.0010986328127	1443.003784179688	362.8846435546874	-773.9698486328127	1448.354248046875	458.2304077148438	-740.777038574219	1443.741455078125	491.7427978515625	-744.6644287109377	1113.047485351563	561.4179077148438	-776.9873046875003	1101.547729492188	495.3327026367188	-778.1170654296878	1080.359008789063	531.9354248046875	-601.9630126953127	880.2549438476565	526.8818969726562	-668.5977783203127	866.265563964844	573.4585571289062	-565.484069824219	799.7761230468752	532.456787109375	-656.9873046875002	793.4882812500002	580.5197143554688	
43	0.42	-644.4517822265626	995.652038574219	156.3394775390624	-819.3883056640627	1013.985900878906	234.7725830078124	-811.765808105469	1019.946533203125	331.7033081054687	-634.7238769531251	1000.103942871094	397.8887023925782	-725.7843017578126	903.5095214843752	101.4241867065429	-553.5216674804689	514.3090209960939	94.13430786132807	-515.8704223632814	504.2335815429689	211.6627655029297	-568.1552124023439	445.5070190429689	94.3863906860351	-494.5633239746095	427.9312438964845	128.0379028320312	-635.2447509765626	110.7480926513672	161.6216430664062	-573.0053710937501	113.178092956543	232.4868469238281	-670.3407592773439	60.39157104492189	221.6105194091797	-474.1714782714845	34.7867546081543	176.9105682373047	-497.2380371093751	50.22326660156251	119.6984329223633	-553.9085083007814	39.19601821899415	94.40715789794916	-741.6043701171876	910.8778076171877	446.2012329101562	-755.0832519531251	485.0432434082032	408.2286682128906	-751.6515502929689	483.6304321289064	285.1598510742187	-774.1262207031252	418.3897705078126	411.2613830566406	-713.4129638671876	404.1110229492189	345.3354187011718	-860.1251220703127	83.15713500976564	352.1026000976562	-825.6501464843752	98.14204406738284	262.9291076660156	-909.4683227539065	37.30388259887696	303.9949035644531	-702.8245849609376	26.83090209960938	288.4278259277343	-706.9756469726564	37.70767211914063	345.1256408691406	-766.1438598632814	27.30722808837891	397.4496154785156	-747.6254882812501	1516.833374023438	273.7193298339843	-811.217956542969	1288.180786132813	284.4904174804687	-578.4040527343751	1284.0107421875	269.8387145996094	-633.3024902343751	1434.848388671875	272.4464111328125	-844.9442138671877	1315.68798828125	193.6425476074218	-810.7700195312502	1440.63427734375	188.4337463378906	-764.1871337890626	1444.313842773438	97.50994873046868	-725.8498535156251	1445.122802734375	73.08757019042962	-774.937438964844	1120.39990234375	-10.63574790954599	-797.0382080078127	1103.633422851563	72.93592834472648	-812.431091308594	1089.646484375	15.90079307556143	-654.2009277343751	875.6851806640627	2.151339292526166	-706.4390869140626	868.1433715820315	-54.80210876464854	-622.3506469726564	787.7961425781252	-12.3922767639161	-716.5307617187501	796.8682861328127	-54.22820663452158	-834.7336425781252	1321.865600585938	368.8668823242187	-803.0307617187502	1441.853393554688	362.5061340332031	-761.7792968750001	1447.06494140625	457.8410949707031	-728.3948974609377	1442.53076171875	491.2431945800781	-729.8082275390627	1111.885498046875	562.2005615234375	-762.447937011719	1099.929077148438	496.3877868652344	-763.0134277343752	1078.6337890625	532.9779663085938	-583.4816894531252	881.4500732421877	526.4896850585938	-649.6047363281252	866.2020263671877	573.3781127929688	-545.2664794921877	801.8133544921877	531.941650390625	-636.4687500000002	793.6254882812502	580.3836059570312	
44	0.43	-632.7492675781251	994.0751953125002	156.1052856445312	-808.138854980469	1012.171630859375	233.6444702148437	-801.123474121094	1018.453186035156	330.5418701171874	-624.3353271484376	998.5986938476565	397.7799987792969	-714.0950317382814	901.7584228515627	100.9698486328124	-540.8610839843751	512.5661621093751	94.62254333496088	-503.9839782714845	503.0004272460939	212.0679473876953	-552.3965454101564	443.026824951172	94.46726226806635	-478.6925354003907	428.890106201172	128.6679229736328	-598.1415405273439	104.2456283569336	158.5137634277343	-537.2752075195314	109.963119506836	230.1304321289062	-630.9165649414064	51.66131973266603	217.931640625	-433.1743774414064	37.85823822021485	175.5104827880859	-456.3341674804689	52.13039779663087	118.0290603637695	-511.9752197265626	38.02814102172852	92.03102874755855	-731.9615478515626	909.5012817382815	445.4772338867188	-750.2999267578126	484.4900512695314	407.9073181152344	-746.8292846679689	483.0223999023439	284.7805175781249	-770.0845947265627	418.0721435546876	410.9344787597656	-709.7033691406251	402.9708862304689	345.0375366210937	-859.738708496094	83.76940155029298	351.7601623535156	-825.2620849609377	98.32813262939456	262.5438232421874	-909.4380493164065	38.11743927001954	303.6534423828124	-702.8489379882814	26.67454528808594	288.4199523925781	-707.0095825195314	37.62528228759766	345.0854797363281	-766.2244873046876	27.31375122070313	397.2125244140625	-735.7033081054689	1515.296752929688	272.9948120117187	-799.6376953125002	1286.860595703125	283.8100280761718	-566.8986206054689	1282.2822265625	269.3251953125	-621.3477172851564	1433.269775390625	271.6174011230469	-833.4346923828127	1314.198486328125	193.5419464111328	-798.9838867187502	1439.155395507813	188.0017395019531	-752.6480712890626	1442.575805664063	97.02505493164057	-714.4342041015626	1443.283081054688	72.48784637451165	-766.4656372070314	1119.051635742188	-10.55845355987558	-787.8592529296877	1102.411865234375	73.07859039306632	-803.9087524414065	1088.796752929688	16.28046989440908	-649.0718383789064	872.733337402344	0.07966237515203158	-702.1248168945314	866.098327636719	-56.26346588134776	-618.6469116210939	784.4597167968752	-15.16464424133309	-713.3097534179689	794.9680175781252	-55.76988983154307	-822.8649902343752	1320.673706054688	368.6208496093749	-791.0472412109377	1440.610473632813	362.0224304199218	-749.5838623046876	1445.653442382813	457.3621520996094	-716.0010986328127	1441.189575195313	490.656005859375	-714.9661254882815	1110.609619140625	562.8258666992188	-747.894226074219	1098.189086914063	497.2774353027344	-747.9019775390627	1076.807495117188	533.8455810546875	-565.094909667969	882.5684204101565	526.0106811523438	-630.6959228515627	866.0958251953127	573.1932983398438	-525.1887207031252	803.7891845703127	531.3540649414062	-616.0759887695315	793.7524414062502	580.1502685546875	
45	0.44	-620.9404907226564	992.3958740234377	155.8392791748046	-796.8232421875002	1010.183715820313	232.3758087158203	-790.5170898437502	1016.807250976563	329.2336120605468	-614.0099487304689	997.0709228515627	397.6435241699219	-702.2316894531251	899.8387451171877	100.458023071289	-528.6085205078126	510.4553527832032	95.15393066406244	-492.810272216797	501.2766113281251	212.6059417724609	-536.9664306640626	440.4527587890626	94.52499389648432	-463.390106201172	429.677947998047	129.4547119140625	-561.3168334960939	98.88599395751956	155.2399444580078	-502.275848388672	107.7975463867188	227.8237457275391	-591.8877563476564	44.27620315551759	213.9642944335937	-393.170135498047	42.08300781250001	174.890625	-416.0364074707032	55.13935470581056	117.0251770019531	-470.3208923339845	38.01714324951173	90.07213592529293	-722.3076171875001	908.0616455078127	444.7021484375	-745.0800170898439	483.9074707031251	407.517578125	-741.5576782226564	482.3973999023439	284.3200378417968	-765.6371459960939	417.7405395507814	410.547607421875	-705.6617431640626	401.7616271972657	344.6807556152343	-859.2720947265627	84.48693084716798	351.4982604980468	-824.8172607421877	98.57248687744143	262.2127075195312	-909.408142089844	39.10858917236329	303.4363403320312	-702.9073486328126	26.53275299072266	288.4099121093749	-707.0532226562501	37.53256225585938	345.0590515136718	-766.2883911132814	27.30030632019044	397.0030822753906	-723.7330322265626	1513.660278320313	272.1763610839843	-788.0654907226565	1285.474243164063	283.0042724609374	-555.3986206054689	1280.420776367188	268.76953125	-609.3609619140626	1431.572143554688	270.7149963378906	-821.8775634765627	1312.627075195313	193.3139038085937	-787.147644042969	1437.593139648438	187.4544525146484	-741.0288085937501	1440.746337890625	96.43327331542963	-702.9266357421876	1441.349487304688	71.7940597534179	-757.7839965820314	1117.61962890625	-10.55328178405771	-778.5032958984377	1101.086547851563	73.1576614379882	-795.1627197265627	1087.831176757813	16.59624290466299	-643.7276000976564	869.7470703125002	-1.907166719436725	-697.5169677734376	864.038269042969	-57.69583892822276	-614.7142333984376	781.1126708984377	-17.81100845336922	-709.7949218750001	793.0845336914065	-57.31201553344737	-811.0042114257815	1319.423095703125	368.2583618164062	-779.0517578125002	1439.301025390625	361.4320983886718	-737.3828125000001	1444.151977539063	456.7899169921875	-703.5955810546877	1439.751098632813	489.9773864746094	-700.1420898437502	1109.250610351563	563.2798461914062	-733.3345336914065	1096.364013671875	497.9842224121094	-732.791687011719	1074.912963867188	534.5257568359375	-546.8273925781252	883.6226806640627	525.4519653320312	-611.9038085937502	865.9678955078127	572.9047241210938	-505.2971496582033	805.702819824219	530.697998046875	-595.8601074218752	793.887145996094	579.8155517578125	
